:SAMPLES-PER-SECOND 30
:FULLY-SPECIFIED
:DEGREES
531
root  -32.6787 35.0257 3.65749 -172.241 82.6252 -179.342
RightUpLeg  -3.63048 -8.77824 -1.09147
RightLeg  3.18816 10.5547 -0.0880645
RightFoot  4.80045 -0.00139172 0.971604
RightToes  -34.6607 -0.178371 -0.268601
Spine  -2.66536 1.60397 -0.063643
Spine1  -5.24762 3.21047 0.433679
HEad  -54.0068 1.01122 -5.16167
LeftShoulder1  -1.94126e-019 -3.10601e-018 -2.51263e-017
LeftArm  27.7493 -0.418714 -86.9513
LeftForeArm  28.6911 -28.7903 -4.79186
LeftHand  0.0503838 -2.95598 -0.478735
RightShoulder  -4.96962e-017 0 -2.36833e-017
RightArm  52.7629 13.8547 92.4785
RightForeArm  114.41 78.4959 117.331
RightHand  0.276948 -9.90084 -8.13666
LeftUpLeg  -3.24585 3.53686 -0.372359
LeftLeg  0.813161 14.6548 -0.726431
LeftFoot  7.1773 -0.118426 2.02444
LeftToes  -17.2124 1.89912e-006 4.45198e-008
532
root  -32.6772 35.0246 3.64779 -171.6 82.8626 -178.824
RightUpLeg  -3.61402 -8.767 -1.04612
RightLeg  2.84667 10.7872 -0.15393
RightFoot  4.9211 -0.00582349 1.01883
RightToes  -34.5688 -0.178356 -0.268637
Spine  -2.59901 1.69445 -0.0365249
Spine1  -5.12068 3.42483 0.501336
HEad  -54.6 0.260308 -4.02798
LeftShoulder1  -1.94126e-019 -3.10601e-018 -2.51263e-017
LeftArm  27.5372 -0.514584 -86.9572
LeftForeArm  29.001 -28.4126 -4.73851
LeftHand  0.0478938 -2.90991 -0.450017
RightShoulder  -4.96962e-017 0 -2.36833e-017
RightArm  58.2379 12.918 92.9585
RightForeArm  126.539 77.2555 127.63
RightHand  -0.0310416 -5.34702 3.1691
LeftUpLeg  -3.34305 3.45178 -0.359643
LeftLeg  0.826183 14.9928 -0.739426
LeftFoot  7.07282 -0.119432 2.04714
LeftToes  -17.0839 1.89912e-006 4.45198e-008
533
root  -32.6774 35.0249 3.66717 -170.931 83.1299 -178.239
RightUpLeg  -3.58899 -8.66183 -0.953852
RightLeg  2.50889 10.9368 -0.220183
RightFoot  5.14017 -0.0110378 1.07635
RightToes  -35.0774 -0.178316 -0.268681
Spine  -2.52443 1.92295 -0.0615075
Spine1  -4.96627 3.90242 0.441469
HEad  -54.7811 -1.06543 -2.56403
LeftShoulder1  -1.94126e-019 -3.10601e-018 -2.51263e-017
LeftArm  27.6453 -0.540869 -86.5382
LeftForeArm  29.552 -29.7008 -4.9427
LeftHand  0.0202912 -2.67534 -0.0832238
RightShoulder  -4.96962e-017 0 -2.36833e-017
RightArm  60.2193 11.7256 92.2766
RightForeArm  136.449 76.1522 134.338
RightHand  -0.0285857 -5.33966 -1.1655
LeftUpLeg  -3.47213 3.70601 -0.278565
LeftLeg  0.966172 14.9948 -0.703243
LeftFoot  6.98874 -0.117821 2.02825
LeftToes  -17.3138 1.89912e-006 4.45198e-008
534
root  -32.6879 35.0285 3.66659 -170.655 83.0496 -178.086
RightUpLeg  -3.62593 -8.9199 -0.918875
RightLeg  2.30898 11.12 -0.262407
RightFoot  5.2437 -0.0144999 1.10797
RightToes  -35.0641 -0.17825 -0.268733
Spine  -2.59073 2.03929 -0.0661673
Spine1  -5.09302 4.11548 0.403326
HEad  -54.3868 -2.68538 -1.16281
LeftShoulder1  -1.94126e-019 -3.10601e-018 -2.51263e-017
LeftArm  26.7384 0.293809 -85.9033
LeftForeArm  28.2788 -31.3566 -5.28991
LeftHand  -0.0349619 -2.23651 0.719587
RightShoulder  -4.96962e-017 0 -2.36833e-017
RightArm  55.2283 10.3952 90.8323
RightForeArm  134.995 76.3325 133.361
RightHand  -0.0117658 -3.38761 0.405693
LeftUpLeg  -3.66017 3.8991 -0.263843
LeftLeg  1.03813 14.7401 -0.673235
LeftFoot  7.00362 -0.115327 1.99488
LeftToes  -17.3567 1.89912e-006 4.45198e-008
535
root  -32.7097 35.031 3.66483 -170.864 82.6302 -178.288
RightUpLeg  -3.58163 -9.19587 -0.913102
RightLeg  2.28112 10.9987 -0.264926
RightFoot  5.25968 -0.0147326 1.09257
RightToes  -35.0759 -0.178156 -0.268792
Spine  -2.6015 1.84601 0.00507054
Spine1  -5.10284 3.69084 0.531685
HEad  -53.626 -3.60739 -0.43588
LeftShoulder1  -1.94126e-019 -3.10601e-018 -2.51263e-017
LeftArm  24.6665 1.57921 -84.5861
LeftForeArm  27.0241 -33.8869 -5.97424
LeftHand  -0.0384581 -2.47878 0.768344
RightShoulder  -4.96962e-017 0 -2.36833e-017
RightArm  49.3089 10.3329 88.796
RightForeArm  124.416 77.4044 126.343
RightHand  0.0454661 -1.37251 1.54964
LeftUpLeg  -3.744 3.56474 -0.261726
LeftLeg  1.06326 14.6749 -0.663948
LeftFoot  7.02875 -0.114443 1.98589
LeftToes  -17.2284 1.89912e-006 4.45198e-008
536
root  -32.7321 35.0322 3.65206 -171.749 82.0103 -178.997
RightUpLeg  -3.41629 -9.61105 -1.01031
RightLeg  2.43482 10.8094 -0.231581
RightFoot  5.13058 -0.0127581 1.04476
RightToes  -34.7317 -0.178033 -0.268858
Spine  -2.59682 1.52 0.0612866
Spine1  -5.0821 2.99365 0.645071
HEad  -52.764 -4.19246 -0.497796
LeftShoulder1  -1.94126e-019 -3.10601e-018 -2.51263e-017
LeftArm  22.3589 3.20008 -83.0822
LeftForeArm  25.1223 -36.2891 -6.72122
LeftHand  -0.0303555 -2.33495 0.648885
RightShoulder  -4.96962e-017 0 -2.36833e-017
RightArm  43.1162 10.0552 85.9498
RightForeArm  114.851 78.6619 116.307
RightHand  -0.0176623 -2.60709 -0.146999
LeftUpLeg  -3.62349 3.24588 -0.326862
LeftLeg  0.962607 14.4123 -0.677414
LeftFoot  7.17348 -0.113992 1.98312
LeftToes  -17.2642 1.89912e-006 4.45198e-008
537
root  -32.7448 35.0328 3.63162 -171.929 81.5448 -179.104
RightUpLeg  -3.37333 -9.90026 -1.04522
RightLeg  2.60224 10.6633 -0.197486
RightFoot  5.03796 -0.0116423 1.00831
RightToes  -34.6301 -0.17788 -0.268931
Spine  -2.57386 1.25889 0.0927445
Spine1  -5.01669 2.41677 0.706733
HEad  -53.0657 -4.96253 -0.631112
LeftShoulder1  -1.94126e-019 -3.10601e-018 -2.51263e-017
LeftArm  20.9223 4.76932 -81.605
LeftForeArm  23.5533 -38.266 -7.37765
LeftHand  -0.0874007 -1.85873 1.56799
RightShoulder  -4.96962e-017 0 -2.36833e-017
RightArm  36.2749 9.37704 82.9146
RightForeArm  99.7696 79.7828 98.9313
RightHand  -0.0384645 -4.21825 -1.65721
LeftUpLeg  -3.53114 3.00087 -0.335819
LeftLeg  0.781368 14.2011 -0.712234
LeftFoot  7.29383 -0.113578 1.98053
LeftToes  -17.3834 1.89912e-006 4.45198e-008
538
root  -32.7757 35.0389 3.62007 -172.05 81.1125 -179.268
RightUpLeg  -3.48684 -10.3018 -1.05965
RightLeg  2.7713 10.6477 -0.165926
RightFoot  4.9781 -0.0121392 0.994002
RightToes  -34.5093 -0.177695 -0.269011
Spine  -2.52178 0.921073 -0.0984188
Spine1  -4.88763 1.69925 0.338541
HEad  -54.1964 -5.40033 -0.17474
LeftShoulder1  -1.94126e-019 -3.10601e-018 -2.51263e-017
LeftArm  19.2794 6.20779 -79.5373
LeftForeArm  22.8684 -40.5191 -8.10782
LeftHand  -0.107995 -1.52226 1.96216
RightShoulder  -4.96962e-017 0 -2.36833e-017
RightArm  29.156 8.53624 80.8071
RightForeArm  73.9555 79.3571 67.5617
RightHand  -0.05588 -3.8944 -2.85053
LeftUpLeg  -3.63723 2.7727 -0.353442
LeftLeg  0.725915 13.9879 -0.715184
LeftFoot  7.37518 -0.112794 1.97191
LeftToes  -17.2754 1.89912e-006 4.45198e-008
539
root  -32.8285 35.0404 3.59695 -172.568 80.389 -179.812
RightUpLeg  -3.53841 -11.1193 -1.15147
RightLeg  2.87642 10.732 -0.147612
RightFoot  4.91699 -0.0134619 0.990583
RightToes  -34.5395 -0.177478 -0.269098
Spine  -2.61186 0.757927 -0.130501
Spine1  -5.06324 1.34513 0.3063
HEad  -55.2182 -6.45626 -0.475671
LeftShoulder1  -1.94126e-019 -3.10601e-018 -2.51263e-017
LeftArm  18.0354 7.80249 -78.513
LeftForeArm  22.384 -41.8352 -8.55925
LeftHand  -0.116074 -1.0472 2.20906
RightShoulder  -4.96962e-017 0 -2.36833e-017
RightArm  22.013 6.9767 78.503
RightForeArm  54.2323 75.1342 38.8202
RightHand  -0.115423 -3.07638 -5.11007
LeftUpLeg  -3.86692 1.88671 -0.450858
LeftLeg  0.841487 14.1661 -0.695772
LeftFoot  7.4487 -0.115415 2.0161
LeftToes  -17.3155 1.89912e-006 4.45198e-008
540
root  -32.84 35.0381 3.59373 -172.755 79.9246 179.932
RightUpLeg  -3.5243 -11.4133 -1.16626
RightLeg  2.80764 10.5648 -0.157989
RightFoot  4.93787 -0.0146225 0.983941
RightToes  -34.8347 -0.177226 -0.269192
Spine  -2.61774 0.691254 -0.185307
Spine1  -5.07027 1.20522 0.232061
HEad  -56.5091 -7.12465 -0.773163
LeftShoulder1  -1.94126e-019 -3.10601e-018 -2.51263e-017
LeftArm  16.6324 9.1162 -77.6226
LeftForeArm  21.8662 -43.1731 -9.04472
LeftHand  -0.142593 -1.13636 2.6614
RightShoulder  -4.96962e-017 0 -2.36833e-017
RightArm  14.8515 5.38405 77.1682
RightForeArm  47.3807 67.3652 22.2909
RightHand  -0.204696 -2.64328 -8.2345
LeftUpLeg  -3.98824 1.6964 -0.476952
LeftLeg  0.804594 13.9144 -0.692549
LeftFoot  7.53742 -0.114625 2.00721
LeftToes  -17.4797 1.89912e-006 4.45198e-008
541
root  -32.8006 35.0332 3.64051 -172.545 80.107 -179.968
RightUpLeg  -3.5034 -10.4286 -1.02411
RightLeg  2.60639 9.73472 -0.179886
RightFoot  4.94175 -0.011968 0.9219
RightToes  -34.6553 -0.176938 -0.269291
Spine  -2.71347 0.949344 -0.273086
Spine1  -5.26241 1.73501 0.0784277
HEad  -57.239 -7.9941 -0.910133
LeftShoulder1  -1.94126e-019 -3.10601e-018 -2.51263e-017
LeftArm  15.8927 10.4876 -76.7407
LeftForeArm  21.4744 -45.0795 -9.75425
LeftHand  -0.143633 -0.807719 2.79084
RightShoulder  -4.96962e-017 0 -2.36833e-017
RightArm  6.67147 3.70307 76.9177
RightForeArm  44.7982 56.426 13.16
RightHand  -0.214835 -3.38455 -11.7932
LeftUpLeg  -3.91315 2.53996 -0.370927
LeftLeg  0.551594 13.2185 -0.71652
LeftFoot  7.64703 -0.110214 1.94213
LeftToes  -17.867 1.89912e-006 4.45198e-008
